PathFileType	4	(X/Y/Z)	T1_P2_Vision_NoMovement_4_0-734.trc
DataRate	CameraRate	NumFrames	NumMarkers	Units	OrigDataRate	OrigDataStartFrame	OrigNumFrames
60	60	6	27	m	60	275	734
Frame#	Time	RHip			RKnee			RAnkle			RBigToe			RSmallToe			RHeel			LHip			LKnee			LAnkle			LBigToe			LSmallToe			LHeel			Neck			Head			Nose			RShoulder			RElbow			RWrist			RThumb			RIndex			RPinky			LShoulder			LElbow			LWrist			LThumb			LIndex			LPinky		
		X1	Y1	Z1	X2	Y2	Z2	X3	Y3	Z3	X4	Y4	Z4	X5	Y5	Z5	X6	Y6	Z6	X7	Y7	Z7	X8	Y8	Z8	X9	Y9	Z9	X10	Y10	Z10	X11	Y11	Z11	X12	Y12	Z12	X13	Y13	Z13	X14	Y14	Z14	X15	Y15	Z15	X16	Y16	Z16	X17	Y17	Z17	X18	Y18	Z18	X19	Y19	Z19	X20	Y20	Z20	X21	Y21	Z21	X22	Y22	Z22	X23	Y23	Z23	X24	Y24	Z24	X25	Y25	Z25	X26	Y26	Z26	X27	Y27	Z27
276	4.6	460.64272024382603	3723.2188778018726	655.3712319275812	842.606575553702	3754.4401276224958	651.9905261566346	1206.2528696729198	3731.621273901027	674.9933774323504	1299.3190517431449	3654.4883731233767	658.3317948373121	1286.188661336692	3690.8081044352048	607.0762838807547	1274.9882942474183	3789.5945809677405	744.727843261345	462.86593389066417	3624.370130204574	848.284265422834	852.1405526928564	3636.430106589914	850.8865614754823	1226.7257193450266	3672.264507299979	852.4473417388992	1309.6715912643253	3562.4529495359825	812.0311827764976	1280.7615153321256	3536.2897352581554	844.0921199824663	1258.149176264895	3708.899606479593	857.3771477387718	-125.57553453158329	3650.2383439190717	757.3650608048919	-387.7455689672705	3574.3593447945564	689.1497862587352	-237.84433583095478	3511.4343969931256	660.7011980523598	-40.82943021817776	3708.157369288863	617.2682412376499	200.46965572667713	3677.5301224982286	528.9481051095789	358.14929676781344	3560.107574584984	632.325337336152	408.35343708193204	3505.152232674427	699.5417841862862	428.7831187597462	3496.2425726361434	716.8550344418521	463.13756244117087	3504.1436089580893	706.3448859199176	-38.69518116802999	3590.7964111578713	914.1496098223511	227.00588989683823	3504.777021957788	911.3646236198841	372.2972312763743	3448.7827072605533	724.7711709512962	408.59135367298273	3459.3587991435465	631.1188528248898	440.33536101252906	3449.6156096347504	619.4799618729245	471.3230498090276	3478.538692924482	701.1830061908483
277	4.616666666666666	458.7994135066281	3715.4601102734496	652.9167983460783	839.5202716220949	3748.735244308774	650.4559702287411	1205.9520749426724	3731.4470741688674	675.4224025847004	1299.49385700637	3657.1491097766075	660.3611151110898	1287.2655721523822	3693.965772494988	607.8433580463703	1272.267782834833	3787.472905387616	744.243391626308	461.49829485167913	3625.9758105816913	849.2170959448265	852.4867900796227	3638.353871139616	852.6404280216165	1227.3158270876434	3671.782843586561	852.1995812143263	1310.0260008419202	3563.1828762951764	812.3093440414915	1281.1925103884105	3536.5818596194363	844.1869114330759	1257.2350607141107	3706.0246079563763	856.530257274437	-125.552433041097	3650.950223587318	755.9106245992012	-387.7402745819585	3574.3974241584033	689.1815973639689	-237.67215134194146	3511.1843032669663	660.5235369990218	-40.80583085603466	3708.3114978403532	617.3193914372509	201.09361635959448	3677.742604647093	529.093731336935	358.53561674392375	3560.293106129362	632.4727837042594	409.0207556014295	3505.9660191696416	700.5214471236441	429.0487291754203	3495.8149255362277	716.3351374969509	462.7504407033461	3508.9544178030214	711.1068506447865	-38.71271209914493	3591.458266318493	913.8245765436861	225.62695505351638	3506.0391106639267	912.1422963308754	368.6394129744649	3448.271945944687	724.7107611276319	408.0536386021899	3458.805640100478	631.7066485162538	439.39393912229843	3449.141750925368	619.6062577567967	470.9140289473546	3481.590559285996	702.1530442332155
278	4.633333333333334	456.49650366726684	3711.174394301452	651.9060113968814	836.259376821023	3745.4144591171366	649.379153321887	1206.241204488267	3732.7113663191244	676.9762953958002	1299.0121463410946	3659.558337642877	662.1771590884048	1289.3275984671657	3699.6144046930185	609.2433477616358	1269.6735778287893	3785.465759742375	743.8047302100299	460.43831806125	3627.2052368311843	849.9435051722755	851.7458560931794	3642.3597201020602	856.3817978148553	1226.6510429356908	3672.0221586806147	852.3087417052434	1310.0405384483274	3563.1108250716393	812.3075762970732	1281.716968522814	3536.944372962667	844.3345057730305	1255.4865013032024	3704.268716691224	856.2210751377615	-125.53631443329475	3651.5288911500948	754.8312938707098	-387.73083669879725	3574.4608349575806	689.2360582410741	-237.18163487190014	3511.187170881593	660.6456538803792	-40.75571380278605	3707.865477194918	616.905298497122	201.24209705097113	3677.732243663263	529.1074411071725	358.0575506387847	3560.132261174235	632.4091114635124	409.727884396813	3505.084586454283	699.6280425788391	429.4973874545809	3495.462970769956	716.1273180641322	462.31373473586893	3512.4453827811367	714.4562148479603	-38.72912655197333	3591.70350846001	913.535828727504	224.09629706559886	3507.529646329053	913.0695456148451	365.5416765193943	3448.761827747374	725.1516692564983	408.34084910760794	3458.3295855642173	632.617748447526	438.66742579181664	3448.5446268926453	619.4917360168653	470.6436167180438	3483.294115423851	702.5378535944299
279	4.65	455.5504359970698	3713.8760069138216	653.1649787251667	835.5765086441471	3748.750007915645	650.0337768937352	1207.8326021443334	3735.6755939203094	679.4357975948992	1298.02596343213	3659.7821486333964	662.5759978758006	1291.3418358289455	3704.2372851917908	610.3062266821986	1269.2706466460627	3785.18188606244	743.6791352727676	460.3004137594784	3627.3488072005002	850.050194679392	849.9613659853644	3645.8315870662727	859.7597920773817	1225.2202262451717	3672.8176587570842	852.7078252221538	1309.0235926110558	3560.470227110295	811.4042429162369	1281.365243772946	3536.7595651919987	844.3064488521368	1253.8503501953437	3703.580385625067	856.1937910511756	-125.54303762593722	3651.8152286113473	754.439072475273	-387.7083771521403	3574.4954621646157	689.2842535887597	-236.49504884762254	3512.1802136990154	661.7129404838724	-40.740903610878846	3706.086822982197	615.451718834561	201.1260569198732	3677.633883711691	529.0695188917558	356.7414982796051	3559.467483350825	632.0915094600919	409.4314734753926	3501.8533481518552	696.382313241398	430.08108862207166	3497.1943781583254	716.4781308256054	461.7699635705151	3512.391023610821	714.409386216934	-38.72226872972955	3591.730436082811	913.4494348504788	223.49387282846797	3508.089721567626	913.4182565668989	364.7418846930217	3450.1627926231454	725.9429987044502	408.8112255246834	3456.7388261461333	632.1592085732165	438.1215520339717	3446.6709160406144	618.1054690105864	470.68721653166364	3482.405243564172	701.4326721390487
280	4.666666666666667	456.40095821110054	3721.230590891135	655.5478062300685	837.4369094420477	3756.736284212144	652.0045567328485	1209.2868215950452	3737.7647915973794	680.7883965836206	1296.7303407214251	3656.4928832246214	661.0291767337065	1291.550748595231	3703.0753570305114	609.8184998997657	1271.5224256379524	3787.076405872386	743.7094144542158	460.9329278167251	3626.5825186444217	849.6152105144	847.9779459614879	3645.7739155162003	859.9825743885933	1224.16503251283	3673.7737253798578	853.235480384751	1306.8298856072756	3554.7850560441843	809.4362555768516	1280.9447982039767	3536.447551840548	844.2106432128135	1253.1653265778434	3703.5130923363354	856.2166684021224	-125.5631865333854	3651.886140723257	754.4707093269785	-387.6708546453633	3574.452792577545	689.2945147159994	-236.18878952915003	3514.3274217903963	663.7276965393897	-40.933577123749316	3703.4612875386274	613.3152766892782	200.51388769950987	3677.4179664034136	528.9715881710259	354.87332756400093	3558.2811226984513	631.5669749856266	408.05897309063096	3499.415228261698	693.79685932576	430.9067463844034	3502.440283381772	717.5343581810545	460.94918966760224	3508.5734395955465	710.9614344011067	-38.685262609659574	3592.0670107152428	913.0607008402774	224.23570133420642	3507.270218219469	912.8986216740952	366.2889238805226	3452.0180482675437	726.8069086499526	408.6081753541565	3453.1871793815617	628.6298594751263	437.5668550536434	3443.1954611908577	614.8084366432771	471.39606714210015	3481.134014093522	699.0549852543853
281	4.683333333333334	458.0972737425893	3727.8328945049643	657.4833016025754	839.3677802922838	3763.4888394241907	653.7322817125118	1209.034012684359	3736.73828404093	679.6103468730316	1295.543172989362	3650.7144220848086	658.1695052838429	1289.6873254969528	3696.952198227814	608.1490093275066	1274.5304069706335	3789.897478572162	743.50778807274	461.724919304765	3625.6400015439876	849.0478697499627	847.1404245367254	3643.003034416074	857.6580673433175	1224.150762988574	3674.5139674344605	853.7074105637015	1304.7836802242086	3549.4464094943874	807.5991433925519	1281.4807207304914	3536.658512915278	844.2486966907504	1253.02493300394	3703.5494419898014	856.1904397872281	-125.58079527959757	3651.8920321980545	754.5962966435221	-387.64156133659026	3574.3822381598875	689.2716501296088	-236.61510156546152	3515.9411421380278	665.0716904307106	-41.57014264893835	3702.583199460246	612.4829295983991	199.1362087009234	3677.005176662842	528.7729269456245	352.9291784736957	3556.889520699193	630.9833726211169	406.6489511324975	3500.8286781877805	694.6535226361788	431.787085471036	3509.8216980082657	718.9740197693891	459.67024876894516	3502.925767833708	706.0099411944897	-38.62944767904415	3592.8964052399224	912.1758333413511	225.34554195315042	3506.0853933784165	912.1416957196387	368.4928725446104	3453.7432320586354	727.4990529407172	407.7697282299285	3448.7253449133823	623.0445490309745	437.344864292274	3440.840404550385	611.0188804469573	472.6992142634175	3481.5443125752063	696.5827840452141
